<svg viewBox="0 0 100 100" fill="none" xmlns="http://www.w3.org/2000/svg">
  <rect width="100" height="100" fill="#f5f0e1" rx="20"/>
  <path d="M48 35V75C48 78.3137 50.6863 81 54 81H56C59.3137 81 62 78.3137 62 75V35H48Z" fill="#808040" />
  <path d="M25 25C25 21.6863 27.6863 19 31 19H69C72.3137 19 75 21.6863 75 25V31C75 34.3137 72.3137 37 69 37H55C51.6863 37 49 34.3137 49 31V25H25Z" fill="#808040" />
  <path d="M49 19H69C72.3137 19 75 21.6863 75 25V31C75 34.3137 72.3137 37 69 37H55C51.6863 37 49 34.3137 49 31V19Z" fill="#6B6B36" fill-opacity="0.3" />
</svg>
